<svg xmlns="http://www.w3.org/2000/svg" xmlns:xlink="http://www.w3.org/1999/xlink" width="94px" height="92px" viewBox="0 0 94 92" version="1.1"><g id="Page-1" stroke="none" stroke-width="1" fill="none" fill-rule="evenodd"><g id="Order" transform="translate(-788.000000, -963.000000)" fill-rule="nonzero"><g id="Group-16" transform="translate(731.000000, 930.000000)"><g id="Group" transform="translate(57.000000, 33.000000)"><path d="M91.0625,44 L2.9375,44 C1.31526562,44 0,45.3430625 0,47 L0,56 C0,57.65675 1.31526562,59 2.9375,59 L91.0625,59 C92.684918,59 94,57.65675 94,56 L94,47 C94,45.3430625 92.684918,44 91.0625,44 Z M60.21875,54.5 L33.78125,54.5 L33.78125,48.5 L60.21875,48.5 L60.21875,54.5 Z" id="Shape" fill="#346AE5"/><path d="M63.1071429,17.9985667 L63.1071429,2.93333333 C63.1071429,1.31321667 61.796058,0 60.1785714,0 L33.8214286,0 C32.203942,0 30.8928571,1.31321667 30.8928571,2.93333333 L30.8928571,17.9985667 C30.8928571,19.6161167 30.226058,21.1619833 29.0500536,22.2706 L6,44 L88,44 L64.9501295,22.2706 C63.773942,21.1619833 63.1071429,19.6161167 63.1071429,17.9985667 Z" id="Path" fill="#B1C3D0"/><g transform="translate(31.000000, 68.000000)" fill="#D0D7DA" id="Path"><path d="M5.21745455,0.454433608 C4.56545455,-0.0140435109 3.65636364,0.130892723 3.18618182,0.775093773 C2.71454545,1.41929482 2.85945455,2.31951988 3.51,2.78655664 C4.99854545,3.85548387 5.81818182,5.2312078 5.81818182,6.66166542 C5.81818182,8.09212303 4.99854545,9.46784696 3.51,10.5367742 C1.24581818,12.1615004 0,14.3656114 0,16.744186 C0,19.1227607 1.24581818,21.3268717 3.51,22.9515979 C3.76854545,23.1372243 4.06690909,23.2258065 4.36236364,23.2258065 C4.81272727,23.2258065 5.25727273,23.0191148 5.54127273,22.6307577 C6.01290909,21.9865566 5.868,21.0863316 5.21745455,20.6192948 C3.72872727,19.5503676 2.90909091,18.1746437 2.90909091,16.744186 C2.90909091,15.3137284 3.72872727,13.9380045 5.21727273,12.8690773 C7.48163636,11.2443511 8.72727273,9.04024006 8.72727273,6.66166542 C8.72727273,4.28309077 7.48163636,2.07897974 5.21745455,0.454433608 Z"/><path d="M16.8536364,0.454433608 C16.2001818,-0.0140435109 15.2925455,0.130892723 14.8223636,0.775093773 C14.3507273,1.41929482 14.4956364,2.31951988 15.1461818,2.78655664 C16.6349091,3.85548387 17.4545455,5.2312078 17.4545455,6.66166542 C17.4545455,8.09212303 16.6349091,9.46784696 15.1463636,10.5367742 C12.8821818,12.1615004 11.6363636,14.3656114 11.6363636,16.744186 C11.6363636,19.1227607 12.8821818,21.3268717 15.1463636,22.9515979 C15.4049091,23.1372243 15.7032727,23.2258065 15.9987273,23.2258065 C16.4490909,23.2258065 16.8936364,23.0191148 17.1776364,22.6307577 C17.6492727,21.9865566 17.5043636,21.0863316 16.8538182,20.6192948 C15.3650909,19.5503676 14.5454545,18.1746437 14.5454545,16.744186 C14.5454545,15.3137284 15.3650909,13.9380045 16.8536364,12.8690773 C19.118,11.2443511 20.3636364,9.04024006 20.3636364,6.66166542 C20.3636364,4.28309077 19.118,2.07897974 16.8536364,0.454433608 Z"/><path d="M28.49,12.8690773 C30.7543636,11.2443511 32,9.04024006 32,6.66166542 C32,4.28309077 30.7541818,2.07897974 28.49,0.454253563 C27.8365455,-0.0142235559 26.9274545,0.130712678 26.4587273,0.774913728 C25.9870909,1.41911478 26.132,2.31933983 26.7825455,2.78637659 C28.2712727,3.85548387 29.0909091,5.2312078 29.0909091,6.66166542 C29.0909091,8.09212303 28.2712727,9.46784696 26.7827273,10.5367742 C24.5185455,12.1615004 23.2727273,14.3656114 23.2727273,16.744186 C23.2727273,19.1227607 24.5185455,21.3268717 26.7827273,22.9515979 C27.0412727,23.1372243 27.3396364,23.2258065 27.6350909,23.2258065 C28.0854545,23.2258065 28.53,23.0191148 28.814,22.6307577 C29.2856364,21.9865566 29.1407273,21.0863316 28.4901818,20.6192948 C27.0014545,19.5503676 26.1818182,18.1746437 26.1818182,16.744186 C26.1818182,15.3137284 27.0014545,13.9380045 28.49,12.8690773 Z"/></g><path d="M9,54.4 C7.6036875,54.4 6.4404375,53.3786 6.1059375,52 C6.0436875,52.2572 6,52.522 6,52.8 C6,54.5688 7.34325,56 9,56 C10.65675,56 12,54.5688 12,52.8 C12,52.522 11.9563125,52.2572 11.8940625,52 C11.5595625,53.3786 10.3963125,54.4 9,54.4 Z" id="Path" fill="#3F556B"/><path d="M12,52 C12,53.65825 10.65675,55 9,55 C7.34325,55 6,53.65825 6,52 C6,50.3419375 7.34325,49 9,49 C10.65675,49 12,50.3419375 12,52 Z" id="Path" fill="#B1C3D0"/><path d="M18,54.4 C16.6036875,54.4 15.4404375,53.3786 15.1059375,52 C15.0436875,52.2572 15,52.522 15,52.8 C15,54.5688 16.34325,56 18,56 C19.65675,56 21,54.5688 21,52.8 C21,52.522 20.9563125,52.2572 20.8940625,52 C20.5595625,53.3786 19.3963125,54.4 18,54.4 Z" id="Path" fill="#3F556B"/><path d="M21,52 C21,53.65825 19.65675,55 18,55 C16.34325,55 15,53.65825 15,52 C15,50.3419375 16.34325,49 18,49 C19.65675,49 21,50.3419375 21,52 Z" id="Path" fill="#B1C3D0"/><rect id="Rectangle" fill="#3CB44A" x="34" y="49" width="27" height="5"/><path d="M63.1071429,17.9985667 L63.1071429,2.93333333 C63.1071429,1.31321667 61.796058,0 60.1785714,0 L57.25,0 L57.25,19.1484333 C57.25,20.0592333 57.4617723,20.9573833 57.8682946,21.7721167 L64.3212187,34.69895 C65.7816607,37.6245833 63.6577143,41.0666667 60.3921741,41.0666667 L9.11160714,41.0666667 L6,44 L68.9642857,44 L73.3571429,44 L88,44 L64.9501295,22.2706 C63.773942,21.1619833 63.1071429,19.6161167 63.1071429,17.9985667 Z" id="Path" fill="#8EADBE"/><path d="M91.0645161,59 C92.6858206,59 94,57.6569375 94,56 L94,47 C93.1894395,47 92.5322581,47.671625 92.5322581,48.5 L92.5322581,54.5 C92.5322581,56.1569375 91.2180786,57.5 89.5967742,57.5 L4.46774194,57.5 C3.65718145,57.5 3,58.171625 3,59 L91.0645161,59 Z" id="Path" fill="#3F556B"/><rect id="Rectangle" fill="#0E9247" x="34" y="49" width="27" height="2"/></g></g></g></g></svg>