<svg xmlns="http://www.w3.org/2000/svg" xmlns:xlink="http://www.w3.org/1999/xlink" width="79px" height="97px" viewBox="0 0 79 97" version="1.1"><g id="Page-1" stroke="none" stroke-width="1" fill="none" fill-rule="evenodd"><g id="Order" transform="translate(-571.000000, -958.000000)" fill-rule="nonzero"><g id="Group-16" transform="translate(504.000000, 930.000000)"><g id="Group" transform="translate(67.000000, 28.000000)"><rect id="Rectangle" fill="#346AE5" x="0" y="0" width="79" height="92"/><rect id="Rectangle" fill="#87CED9" x="8" y="44" width="63" height="39"/><polygon id="Path" fill="#71C4D1" points="8 69.3175766 8 83 71 83 71 44 39.4667578 44"/><g transform="translate(0.000000, 34.000000)" fill="#126099" id="Rectangle"><rect x="3.41797847" y="56.3731636" width="3.28020096" height="6.62683636"/><rect x="72.3018206" y="58.0298727" width="3.28020096" height="4.97012727"/><rect x="0.137777512" y="0.0452454545" width="78.724445" height="3.31341818"/></g><g transform="translate(10.000000, 20.000000)" fill="#CFCFCF" id="Oval"><ellipse cx="21.3471019" cy="4.93754717" rx="4.89173885" ry="4.91207547"/><ellipse cx="5.04149363" cy="4.93754717" rx="4.89173885" ry="4.91207547"/><ellipse cx="53.9585064" cy="4.93754717" rx="4.89173885" ry="4.91207547"/><ellipse cx="37.6528981" cy="4.93754717" rx="4.89173885" ry="4.91207547"/></g><g transform="translate(14.000000, 20.000000)" fill="#EBEBEB" id="Rectangle"><rect x="0.0291690647" y="0.0256603774" width="3.3088777" height="9.82415094"/><rect x="16.5733669" y="0.0256603774" width="3.3088777" height="9.82415094"/><rect x="33.1177554" y="0.0256603774" width="3.3088777" height="9.82415094"/><rect x="49.6621439" y="0.0256603774" width="3.3088777" height="9.82415094"/></g><g transform="translate(8.000000, 5.000000)" fill="#CFCFCF"><path d="M3.3241523,8.88218182 L0.0823706897,8.88218182 L0.0823706897,1.782 C0.0823706897,0.802227273 0.808577586,0.00695454545 1.70326149,0.00695454545 L6.56593391,0.00695454545 L6.56593391,3.55704545 L3.3241523,3.55704545 L3.3241523,8.88218182 Z" id="Path"/><path d="M26.0164368,8.88218182 L22.7746552,8.88218182 L22.7746552,3.55704545 L19.5328736,3.55704545 L19.5328736,0.00695454545 L24.395546,0.00695454545 C25.2902299,0.00695454545 26.0164368,0.802227273 26.0164368,1.782 L26.0164368,8.88218182 Z" id="Path"/><rect id="Rectangle" x="11.4284195" y="0.00695454545" width="3.24178161" height="8.87522727"/><path d="M42.2253448,8.88218182 L38.9835632,8.88218182 L38.9835632,1.782 C38.9835632,0.802227273 39.7097701,0.00695454545 40.604454,0.00695454545 L45.4671264,0.00695454545 L45.4671264,3.55704545 L42.2253448,3.55704545 L42.2253448,8.88218182 Z" id="Path"/><path d="M64.9176293,8.88218182 L61.6758477,8.88218182 L61.6758477,3.55704545 L58.4340661,3.55704545 L58.4340661,0.00695454545 L63.2967385,0.00695454545 C64.1914224,0.00695454545 64.9176293,0.802227273 64.9176293,1.782 L64.9176293,8.88218182 Z" id="Path"/><rect id="Rectangle" x="50.3297989" y="0.00695454545" width="3.24178161" height="8.87522727"/></g><g transform="translate(29.000000, 52.000000)" fill="#EBEBEB" id="Rectangle"><polygon transform="translate(6.003288, 6.811958) rotate(135.000000) translate(-6.003288, -6.811958) " points="-0.54370559 5.08780261 12.5276541 5.17582523 12.5502823 8.53611374 -0.521077384 8.44809111"/><polygon transform="translate(11.932059, 10.980516) rotate(135.000000) translate(-11.932059, -10.980516) " points="-0.554200187 9.21636533 24.3956903 9.38437806 24.4183185 12.7446666 -0.531571982 12.5766538"/><polygon transform="translate(17.417702, 15.586470) rotate(135.000000) translate(-17.417702, -15.586470) " points="11.4671224 13.8663311 23.3456532 13.9463212 23.3682814 17.3066097 11.4897506 17.2266196"/></g><rect id="Rectangle" fill="#CFCFCF" x="0" y="11" width="79" height="4"/></g></g></g></g></svg>