<svg width="1424px" height="2783px" viewBox="0 0 1424 2783" version="1.1" xmlns="http://www.w3.org/2000/svg" xmlns:xlink="http://www.w3.org/1999/xlink"> <title>Group</title> <g id="Page-1" stroke="none" stroke-width="1" fill="none" fill-rule="evenodd"> <g id="Group" fill-rule="nonzero"> <g id="g12" transform="translate(712.000000, 1391.500000) scale(-1, 1) rotate(-180.000000) translate(-712.000000, -1391.500000) "> <g id="g84" transform="translate(466.358216, 134.869044)" fill="#FF505C"> <path d="M13.0602902,109.928151 C22.9490214,119.567275 114.53964,99.235571 114.776717,93.5469076 C115.514289,76.1648808 111.900187,10.2711976 101.979845,2.73898604 C92.3808746,-4.58253433 -0.121172519,7.05815631 0.115449237,23.8081095 C0.295028741,38.3458045 3.55088162,100.605064 13.0602902,109.928151" id="path86"></path> </g> <g id="g88" transform="translate(285.441198, 45.620924)" fill="#051C50"> <path d="M291.882112,111.06248 C291.882112,111.06248 327.214686,44.6126152 290.66752,0.260587704 C290.66752,0.260587704 66.2655223,17.0945534 0.177236293,35.8568683 C0.177236293,35.8568683 8.53340624,118.306818 67.1204268,118.202682 C125.738724,118.150465 183.293604,109.029896 183.293604,109.029896 C183.293604,109.029896 244.367146,70.7235032 291.882112,111.06248" id="path90"></path> </g> <g id="g92" transform="translate(1050.953816, 133.497540)" fill="#FF505C"> <path d="M1.18497013,90.5656498 C6.84122754,103.202717 99.4637595,117.945963 101.807367,112.733172 C108.885589,96.831529 129.735796,34.2253909 123.279026,23.5891924 C117.059249,13.2162663 26.7171264,-9.89903614 20.7659432,5.79198922 C15.6416057,19.3241822 -4.23429326,78.4024723 1.18497013,90.5656498" id="path94"></path> </g> <g id="g96" transform="translate(927.106659, 0.671087)" fill="#051C50"> <path d="M248.452751,177.49667 C248.452751,177.49667 305.722934,128.580676 288.074027,73.9221428 C288.074027,73.9221428 73.1594196,7.20427663 4.79862299,0.365434322 C4.79862299,0.365434322 -17.7428954,80.0823213 36.8172912,101.590741 C91.3200406,122.994752 148.219491,135.680543 148.219491,135.680543 C148.219491,135.680543 219.070976,122.524907 248.452751,177.49667" id="path98"></path> </g> <g id="g100" transform="translate(204.351684, 1723.116505)" fill="#FF505C"> <path d="M13.946484,44.9345241 C27.4892017,28.1916161 93.9253003,-1.91914757 112.108021,0.794130029 C234.204291,18.5958782 300.203528,123.818107 348.21862,173.517411 C356.479279,181.988132 363.886074,190.657385 370.432382,199.52517 C403.223499,243.136144 417.203078,289.460396 422.915379,328.108057 C428.607821,367.483672 425.880743,395.013512 425.880743,395.013512 C425.880743,395.013512 494.004718,732.584953 423.749388,700.224153 C353.103528,667.466289 265.069245,522.140494 200.764502,411.094645 C198.838339,407.918125 197.183559,404.741605 195.257395,401.763617 C191.226351,394.748802 187.433596,387.998697 183.614365,381.645657 C173.665829,364.307151 164.359347,348.027485 155.91997,334.064033 C137.704154,303.15914 91.4365115,232.415389 91.4365115,232.415389 C91.4365115,232.415389 -42.3292668,113.626772 13.946484,44.9345241" id="path102"></path> </g> <g id="g104" transform="translate(257.798294, 1785.555525)" fill="#FC3C4C"> <path d="M0.263061356,24.18381 C13.801097,7.44117234 29.6746043,-1.66784897 47.8899991,1.09051664 C169.956884,18.859523 246.764385,61.3896717 294.776291,111.104401 C294.988022,113.028842 294.988022,115.081579 294.988022,117.262612 C294.365657,169.671559 242.529737,214.318593 214.388589,253.705487 C199.990792,273.976269 172.266691,320.098705 141.815735,339.343117 C137.792822,332.350982 134.000888,325.615438 130.176875,319.264783 C120.225456,301.880663 110.922066,285.587062 102.484855,271.666938 C105.654423,251.781046 110.511434,232.344192 119.186043,214.318593 C132.101714,186.799085 169.956884,150.68374 165.927554,118.481425 C159.177785,64.5329256 97.5957632,57.1559014 56.3657077,44.2621458 C41.9358299,39.8359313 13.5893647,36.2436411 0.263061356,24.18381" id="path106"></path> </g> <g id="g108" transform="translate(359.967979, 178.218558)" fill="#2457C6"> <path d="M517.569182,1233.97377 C510.666336,1218.53969 503.110856,1202.22724 495.498899,1185.53836 C442.742322,1071.16302 378.439165,937.965624 368.398661,867.382927 C247.103092,729.2918 260.042791,447.211971 251.156945,291.365374 C244.197621,163.563638 236.171493,23.8412667 232.707519,12.4225547 C232.500432,12.0461137 99.087229,-1.14123714e-12 99.087229,-1.14123714e-12 C68.6707756,168.269151 0.244737297,707.269999 0.244737297,824.343166 C0.244737297,945.494445 107.947974,1416.67316 191.359466,1570.70029 C270.679452,1717.1986 533.74067,1426.08419 564.01279,1387.12254 C575.590748,1372.19038 551.926534,1310.95597 517.569182,1233.97377" id="path110"></path> </g> <g id="g112" transform="translate(503.825358, 180.227027)" fill="#0A2C76"> <path d="M370.451972,1234.54433 C367.225667,1237.01632 363.637536,1237.01632 360.381082,1235.99135 C334.37768,1275.48278 275.610719,1316.18006 239.946499,1263.24345 C219.919298,1233.51937 238.372546,1195.95729 238.348425,1163.9421 C238.432852,1099.30879 194.120933,1043.9605 165.53649,989.09454 C63.7360716,793.566737 122.852801,567.47076 85.50608,358.859537 C66.1301695,249.60996 -1.45937452,114.917049 0.373889341,2.04993687 C55.8542431,-2.773444 77.389063,3.79841244 88.8529925,10.4305611 C124.010651,162.547935 150.936714,621.191165 224.544671,865.374821 C245.126676,933.625659 298.888345,1069.16266 351.642924,1183.53708 C359.253382,1200.23804 366.809564,1216.51695 373.708426,1231.95177 C372.707368,1232.91644 371.45906,1233.63995 370.451972,1234.54433" id="path114"></path> </g> <g id="g116" transform="translate(384.391725, 1883.927836)" fill="#FFDEDB"> <path d="M245.814228,234.202181 C245.814228,234.202181 248.56778,206.67234 242.848862,167.296726 C236.242982,121.568072 218.351502,59.9568172 171.785999,7.61041279 C124.280581,-45.8610092 -38.1592217,214.679818 8.46585337,280.129368 C79.4625252,379.792687 174.215215,507.250556 243.676251,539.412823 C313.938201,571.773622 245.814228,234.202181 245.814228,234.202181" id="path118"></path> </g> <g id="g120" transform="translate(545.857301, 1913.175631)" fill="#FFB4B7"> <path d="M72.6174883,505.163888 C72.6174883,505.163888 26.0219812,482.213884 15.4482839,410.791887 C4.84820183,339.435838 -9.2544587,143.107785 8.93124525,69.6413922 C23.3571193,11.2771573 27.0905645,0.329741441 27.5391057,0.329741441 C27.5918752,0.329741441 27.624856,0.329741441 27.6842217,0.329741441 L69.2402374,62.0573392 C69.2402374,62.0573392 113.817309,130.643559 106.917691,146.866838 C100.07744,163.156065 72.6174883,505.163888 72.6174883,505.163888" id="path122"></path> </g> <g id="g124" transform="translate(806.555566, 166.669725)" fill="#2457C6"> <path d="M368.930975,57.4566972 C335.699412,19.5439357 244.677591,0.123695796 244.677591,0.123695796 C163.664831,177.627163 82.8005351,523.913543 70.5644903,724.486276 C51.6103746,1036.01414 -1.85582073,1339.99656 0.482513392,1421.63578 C0.958840712,1434.74754 1.07637603,1441.73635 1.07637603,1441.73635 C81.7365312,1530.11699 179.983681,1577.92542 237.594542,1581.75999 C260.346905,1583.30619 276.603894,1578.04911 283.179686,1565.80323 C304.391716,1525.72579 320.710568,1488.86445 333.095078,1454.35332 C334.394152,1450.88984 335.489086,1447.42636 336.559277,1444.02472 C413.217044,1226.69121 389.784216,1110.35531 376.873889,829.504007 C370.619773,697.025809 320.710568,131.488631 368.930975,57.4566972" id="path126"></path> </g> <g id="g128" transform="translate(1042.034120, 177.229125)" fill="#0A2C76"> <path d="M109.930546,333.273967 C110.668868,479.504554 135.137201,686.496787 141.385474,818.940092 C154.303045,1099.81019 177.727966,1216.148 101.070691,1433.45019 C78.1156116,1435.46338 53.08591,1431.07097 26.3721039,1418.4428 C18.7875307,1415.02648 20.0628129,1406.91272 25.1273308,1402.39831 C23.7605212,1400.38512 23.406615,1397.63986 24.7124063,1394.40656 C67.8096228,1278.6178 92.7783061,1155.50837 80.6356668,1031.60585 C74.5887546,968.159957 56.7592109,907.032277 43.9636761,844.562474 C30.9301699,780.628533 22.9062652,716.023531 16.7739272,651.296515 C6.58387322,540.876257 -8.07882125,425.941577 6.93777927,315.277295 C22.3693041,200.952672 23.9740852,113.470543 49.9190609,0.976090694 C51.4567218,-6.16157251 124.501714,29.4657379 133.446995,46.8523534 C126.661761,61.8597477 108.685773,90.6544233 109.930546,333.273967" id="path130"></path> </g> <g id="g132" transform="translate(512.899763, 1582.353489)" fill="#FFDEDB"> <path d="M0.404422151,114.739339 C3.57350065,104.796588 39.3217668,86.8333529 91.7773087,68.0084122 C150.398631,47.2612065 229.957086,25.7185808 309.7277,13.4558555 C417.635485,-3.24796512 526.166478,-2.85025509 584.131442,8.15305528 C607.826602,12.5941504 623.055418,18.8912256 626.668697,26.5140008 C637.89307,50.6417417 652.054474,195.540756 656.702015,351.641936 C657.557268,381.934182 658.180475,412.557855 658.180475,442.651244 C659.04236,599.61413 648.023512,746.56798 612.480772,773.877401 C604.451998,780.240761 595.11714,786.802977 584.781171,793.762902 C569.32031,804.302217 551.340099,815.371813 531.052693,825.911128 C499.295609,842.614949 462.035732,858.059353 420.386882,868.664955 C356.262765,885.368774 281.590524,890.87043 199.479568,872.045489 C199.479568,872.045489 199.479568,871.846635 199.274042,871.846635 C179.397688,867.40554 159.077133,861.43989 138.345525,853.618258 C133.485829,851.961134 128.599614,850.038869 123.534392,848.116602 C54.159419,820.210617 64.0843362,669.147096 75.3087083,542.476457 C80.3739301,483.681662 85.6778271,430.12338 83.5430085,396.715739 C82.7142747,385.513574 81.4413394,374.311408 79.3131507,363.308097 C63.6401348,270.0451 12.0398463,182.681466 0.404422151,114.739339" id="path134"></path> </g> <g id="g136" transform="translate(766.040098, 2430.666068)" fill="#FF505C"> <path d="M7.26302469,101.367112 L7.26302469,33.4992895 C7.26302469,33.4992895 -8.76110713,4.0787558 7.26302469,0.869243042 C42.5415286,-6.15156614 93.4295164,33.4992895 93.4295164,33.4992895 L93.4295164,137.072941 L7.26302469,101.367112" id="path138"></path> </g> <g id="g140" transform="translate(778.406496, 2504.285093)" fill="#FC3C4C"> <path d="M81.0575785,12.3639706 L81.0575785,58.144078 C81.0575785,58.144078 42.8750872,9.62384741 0.574876442,7.21788556 C0.574876442,7.21788556 45.8965308,-11.0941574 81.0575785,12.3639706" id="path142"></path> </g> <g id="g144" transform="translate(711.884905, 2516.533765)" fill="#FF505C"> <path d="M40.2777802,189.598892 C40.2777802,189.598892 8.52016942,125.270697 0.616323861,65.343904 C-5.01186437,22.751867 72.8887625,-33.3829479 136.363347,26.5438449 C199.837932,86.4706379 182.215134,178.155245 182.215134,178.155245 L40.2777802,189.598892" id="path146"></path> </g> <g id="g148" transform="translate(904.850218, 1590.219735)" fill="#FFB4B7"> <path d="M187.725963,205.436887 C196.201576,140.68318 171.228434,64.5564872 192.170893,0.262959216 C215.868419,4.66752606 231.090332,11.044287 234.706768,18.6701043 C245.930874,42.7966122 260.094158,187.68714 264.742922,343.753435 C265.597718,374.059483 266.222374,404.694232 266.222374,434.737323 C254.406488,461.822121 239.565945,488.052302 221.582389,515.72876 C171.675557,592.775811 126.79886,672.058014 86.8142166,754.561467 C83.6449027,760.938228 133.347899,789.929481 137.582418,791.572977 C132.512831,793.479432 96.7627063,794.136828 70.7309346,760.938228 C-5.66136792,663.840537 -27.6427302,521.250905 43.2394372,418.894028 C91.6668177,349.275578 175.883775,295.763376 187.725963,205.436887" id="path150"></path> </g> <g id="g152" transform="translate(699.492159, 2560.090338)" fill="#051C50"> <path d="M0.239088927,170.059517 C-0.266413376,116.104891 59.3350407,111.460696 99.0852827,113.987685 C102.432528,114.192576 104.502355,118.290395 107.405577,118.563583 C112.617716,118.905068 114.933463,115.831703 120.616948,114.807248 C133.445777,112.621745 142.210094,111.528993 155.216532,111.733884 C160.934173,111.802181 166.617658,110.504538 172.246495,109.070301 C168.871925,101.967414 168.127334,92.3375372 166.767943,85.6444316 C162.587302,65.3602242 150.031718,41.1147909 156.37099,20.1476135 C160.578955,6.14672954 174.200193,-2.52698881 188.68215,1.70742487 C206.101487,6.82969949 204.263917,23.0843842 210.220647,36.4022983 C213.745501,44.3930467 216.436959,49.9934002 214.155368,58.9403066 C213.479088,61.6038894 211.880608,63.9942843 210.66467,66.3846792 C211.108692,66.7944609 211.46391,69.2531528 212.529563,71.9850327 C217.147395,83.8687099 215.548915,96.9134358 209.626341,107.840955 C224.497672,115.626812 229.621006,132.905952 223.609627,148.477667 C216.115897,167.73742 197.924645,173.952446 179.385007,174.976901 C165.907222,195.944078 140.406681,195.670891 119.967993,185.289747 C110.868951,195.192812 99.7069138,199.700413 88.271632,198.880849 C64.1919615,241.088392 0.717266783,221.009076 0.239088927,170.059517" id="path154"></path> </g> <g id="g156" transform="translate(883.821828, 1596.221278)" fill="#FF505C"> <path d="M489.309959,58.1529932 C399.384466,-67.9547987 0.282929406,50.5878415 0.282929406,50.5878415 L5.90861877,120.38459 C5.90861877,120.38459 240.647909,101.241467 287.35758,179.195423 C295.832303,193.404751 271.039792,355.364784 227.442344,397.269148 C207.979433,415.885998 187.450601,434.239715 169.678687,449.698938 C126.522083,487.327345 95.4195873,537.717836 85.674972,594.160447 C76.140909,648.300621 84.0168742,694.020451 97.1105839,729.741124 C115.297023,779.473774 178.120511,795.327701 219.204492,761.909466 C298.082579,697.572783 425.302115,532.652474 428.473556,528.639654 C541.237374,381.217868 579.505222,184.721273 489.309959,58.1529932" id="path158"></path> </g> <g id="g160" transform="translate(960.650771, 1958.765271)" fill="#FFDEDB"> <path d="M150.356472,-1.19814332e-12 C132.403559,17.1917113 19.3430288,127.916871 2.048938,238.049213 C-5.83057917,288.109369 9.69127908,408.978297 72.0422411,423.469396 C171.946086,446.589283 305.416939,301.612438 397.507147,192.138781 C355.237096,96.8268798 262.560534,30.1678306 150.356472,-1.19814332e-12" id="path162"></path> </g> <g id="g164" transform="translate(710.015435, 2510.658283)" fill="#051C50"> <path d="M167.999736,79.4619635 C168.973901,80.5366817 170.09587,81.5442297 171.076753,82.6189479 C179.965166,93.1646184 163.196096,106.800103 154.314402,96.2544327 C143.706085,83.6936658 131.740655,74.0212036 115.7442,68.5132737 C94.6283405,61.2589271 84.6448322,67.4385558 70.1868849,81.0068708 C65.9543075,84.9027237 58.3423861,83.8280057 54.7883647,79.6634732 C41.9898566,64.6845909 5.32095461,85.5072526 0.759176605,62.4008151 C-2.82843673,44.0634389 17.5819927,11.6875585 39.9743434,4.76906121 C99.5461924,-13.7026548 142.107111,25.7260627 174.805452,62.4008151 C180.912457,69.1849727 175.430261,78.1185661 167.999736,79.4619635" id="path166"></path> </g> <g id="g168" transform="translate(579.311333, 1582.680315)" fill="#EEF9FB"> <polyline id="path170" points="0.11660784 87.7445924 265.215326 71.7296703 11.4889408 0.552238695 0.11660784 87.7445924"></polyline> </g> <g id="g172" transform="translate(590.297469, 1550.866860)" fill="#99CBD3"> <polyline id="path174" points="254.232814 103.531995 255.62374 78.4147655 0.41666461 0.428830749 0.508575922 32.4073522 254.232814 103.531995"></polyline> </g> <g id="g176" transform="translate(41.657412, 1551.156879)" fill="#B9DAE1"> <polyline id="path178" points="0.500539408 65.3007813 549.158878 32.1011316 549.067315 0.122057535 0.616518052 36.8003468 0.500539408 65.3007813"></polyline> </g> <g id="g180" transform="translate(0.733991, 1583.206002)" fill="#D3E7EC"> <path d="M41.4052901,33.1803426 L590.064742,0.0629608018 L547.796709,297.993474 C546.430178,308.319046 537.9602,316.252106 527.56322,316.881715 L23.0736096,347.354743 C9.44607376,348.173234 -1.54285872,336.399563 0.201516241,322.862991 L41.4052901,33.1803426" id="path182"></path> </g> <g id="g184" transform="translate(632.836457, 1631.725131)" fill="#FF505C"> <path d="M51.757448,101.070772 C68.4341575,106.723777 86.7698392,108.090438 105.136588,106.848019 C107.416898,107.53135 109.548087,107.469229 111.772477,107.904075 C110.585721,109.954066 109.100724,111.817694 108.125223,113.929807 C102.172806,127.037325 101.222159,149.214501 117.488785,155.799321 C134.637712,162.756866 145.567046,140.890295 154.390044,130.267614 C164.673187,117.905547 176.5221,105.791963 190.794232,98.2753292 C205.339753,92.1874769 221.214936,91.131421 236.711105,88.4602206 C247.758492,86.4723503 266.03204,85.9132618 272.848117,74.9799762 C278.266184,66.2209235 278.328318,48.1437296 275.954807,38.2664999 C272.966171,25.9044325 262.123824,20.0650641 251.281477,15.0953887 C244.353559,11.9272208 233.480146,8.38632709 222.19665,6.58481979 C204.420173,1.42878165 185.848382,-1.86362824 167.692889,3.35453083 C163.753606,4.47270778 160.112566,6.02573132 156.5523,7.76511767 C140.527995,1.11817694 123.441203,-1.056056 105.757926,1.67726542 C97.3450106,2.98180519 94.797525,10.9954066 97.0778351,17.3938636 C93.4927153,18.4499196 90.2369048,20.127185 87.6272855,22.6741436 C84.5205961,25.9044325 83.5078153,29.7559308 83.3338405,33.6695502 C79.8108547,35.5952994 76.6420313,37.8937742 74.3865745,40.2543699 C64.7309835,50.3179624 63.2521993,62.7421509 66.8932395,72.5572595 C50.3656511,64.6057789 36.0562389,51.8088651 23.1759041,37.7695323 C16.6270025,30.6256241 6.53026144,33.4210665 2.7649537,41.6831517 C-9.40705597,68.2709146 31.023402,94.1753472 51.757448,101.070772" id="path186"></path> </g> <g id="g188" transform="translate(104.987430, 1562.154051)" fill="#FF505C"> <path d="M97.7671857,9.11579024 C96.849299,9.60522863 96.378117,10.5841054 96.1700626,11.624162 C92.8228353,8.07573363 88.7351793,4.64966482 83.9070947,4.58848502 C77.7144181,4.52730522 74.1897327,9.72758823 71.527861,13.6430955 C71.3809991,13.8266348 71.3504028,14.071354 71.2586142,14.2548935 C65.0720568,5.68972143 56.5663055,-1.34595561 46.4695506,0.611798002 C36.9296468,2.50837181 34.9164149,10.1558468 35.7119168,18.9045583 C33.1969069,15.9067481 30.4432466,13.2148368 27.5121279,11.0735439 C15.8977999,2.3248324 4.05094053,12.4194994 0.28760454,22.1470877 C-0.330439258,23.7377624 0.140742647,25.1448979 1.0892257,26.0625949 C1.0892257,26.4296737 1.05862948,26.7967525 1.15041816,27.1638313 C3.87348243,36.3408014 7.57562595,45.2730522 12.6423613,53.7770444 C16.1670467,59.6503052 20.6952884,68.5213762 27.5121279,72.2533441 C39.6221149,78.9219423 45.0743625,65.5847459 47.1181906,56.3465961 C50.4654179,65.5235661 56.3582514,73.4157603 68.7742004,68.7660954 C77.3044287,65.5235661 81.5389467,59.5891254 83.0504003,52.7981676 C85.5960064,56.9583941 88.7351793,60.629182 92.8840278,63.1375539 C103.366295,69.5614328 110.831775,58.3043495 112.667549,50.7180543 C113.530362,47.0472664 113.530362,43.4376581 112.967392,39.8892299 C113.732297,40.3174882 114.533919,40.6845671 115.482401,40.8069267 C123.155935,42.2752419 128.06969,33.2818113 129.018173,28.0815283 C131.924814,12.7253985 113.499766,0.489438401 97.7671857,9.11579024" id="path190"></path> </g> </g> </g> </g></svg>