<svg xmlns="http://www.w3.org/2000/svg" xmlns:xlink="http://www.w3.org/1999/xlink" width="35px" height="37px" viewBox="0 0 35 37" version="1.1"> <g id="Page-1" stroke="none" stroke-width="1" fill="none" fill-rule="evenodd"> <g id="Front" transform="translate(-745.000000, -33.000000)" fill-rule="nonzero"> <g id="Section-1" transform="translate(0.000000, -97.000000)"> <g id="Types" transform="translate(732.000000, 130.000000)"> <g id="Group-3"> <g id="Group" transform="translate(13.000000, 0.000000)"> <g transform="translate(0.000000, 13.000000)" fill="#4398D1"> <polygon id="Path" points="22.4725645 21.9535161 4.53258871 21.9535161 1.96976613 2.53283871 25.0353871 2.53283871"/> <rect id="Rectangle" x="0.0476129032" y="0.0269677419" width="26.91" height="2.50587097"/> </g> <polygon id="Path" fill="#398CC4" points="2 16 2.32966428 19 24.6703357 19 25 16"/> <polygon id="Path" fill="#726891" points="13 13 4 13 4 7.21429612 6.57140776 4 10.4285922 4 13 7.21429612"/> <rect id="Rectangle" fill="#E8594A" x="6" y="0" width="4" height="4"/> <rect id="Rectangle" fill="#7A709C" x="4" y="7" width="9" height="6"/> <polygon id="Rectangle" fill="#E66712" transform="translate(23.290178, 5.037251) rotate(-26.526615) translate(-23.290178, -5.037251) " points="22.6281182 2.11520259 23.9168733 2.12294114 23.9522381 7.95929941 22.663483 7.95156086"/> <g transform="translate(14.000000, 0.000000)" fill="#F77219"> <rect id="Rectangle" x="9.321075" y="0" width="2.64825" height="2.48661972"/> <path d="M6.010425,4.97330986 L0.051825,4.97330986 C0.051825,2.22676056 2.423325,0 5.348325,0 L9.320775,0 L9.320775,2.48661972 L6.010425,4.97330986 Z" id="Path"/> </g> <rect id="Rectangle" fill="#D4D4D4" x="17" y="5" width="4" height="3"/> <polygon id="Path" fill="#EBEBEB" points="16.9285194 7 20.7857039 7 24 10.3333501 24 13 15 13 15 9.00002517"/> <path d="M31.8750649,27 L30.8963146,27 C30.3069687,27 29.7256941,27.1374945 29.1981573,27.4005891 C28.1294192,27.9355574 26.8706517,27.9355574 25.8019135,27.4005891 C25.2744475,27.1374945 24.6931729,27 24.1037562,27 L23.1250059,27 C21.3993779,27 20,28.3993713 20,30.1249911 L20,33.8750089 C20,35.6006287 21.3993779,37 23.1250059,37 L24.1037562,37 C24.6931021,37 25.2743767,36.8625055 25.8019135,36.5994109 C26.8706517,36.0644426 28.1294192,36.0644426 29.1981573,36.5994109 C29.7256233,36.8625055 30.3068979,37 30.8962438,37 L31.8749941,37 C33.6006221,37 35,35.6006287 35,33.8750089 L35,30.1249911 C35.0000708,28.3993713 33.6006929,27 31.8750649,27 Z" id="Path" fill="#F5A338"/> <path d="M31.8750649,34 L30.8963146,34 C30.3069687,34 29.7256941,33.8460057 29.1981573,33.551339 L29.1981573,33.551339 C28.1294192,32.9521727 26.8706517,32.9521727 25.8019135,33.551339 L25.8019135,33.551339 C25.2744475,33.8460057 24.6931729,34 24.1037562,34 L23.1250059,34 C21.3993779,34 20,32.4326997 20,30.5 L20,30.5 C20,28.5673003 21.3993779,27 23.1250059,27 L24.1037562,27 C24.6931021,27 25.2743767,27.1539943 25.8019135,27.448661 L25.8019135,27.448661 C26.8706517,28.0478273 28.1294192,28.0478273 29.1981573,27.448661 L29.1981573,27.448661 C29.7256233,27.1539943 30.3068979,27 30.8962438,27 L31.8749941,27 C33.6006221,27 35,28.5673003 35,30.5 L35,30.5 C35.0000708,32.432779 33.6006929,34 31.8750649,34 Z" id="Path" fill="#F9B44D"/> <g transform="translate(22.000000, 28.000000)" fill="#F5A338" id="Rectangle"> <rect x="8.69797203" y="0.0177777778" width="1.23461538" height="1.30777778"/> <rect x="2.52454545" y="0.0177777778" width="1.23461538" height="1.30777778"/> <rect x="0.0553146853" y="0.671851852" width="1.23461538" height="1.30777778"/> <rect x="6.22874126" y="0.671851852" width="1.23461538" height="1.30777778"/> </g> <path d="M17.3275383,18.2307977 L17.3275383,13 L7,13 L7,28.0384416 C7,29.1218428 7.8668373,30 8.93643629,30 L15.3911752,30 C16.460701,30 17.3276115,29.1219169 17.3276115,28.0384416 L17.3276115,21.499963 L19.9482314,22.8272721 C20.6395076,23.1777646 21.4799486,22.8939338 21.8258792,22.194356 C21.8258792,22.1936894 21.8265373,22.1936894 21.8265373,22.1930227 L21.8426968,22.1603585 C22.2041288,21.4417451 21.921447,20.5623287 21.2126951,20.1968743 C21.2101359,20.1955411 21.2069186,20.1936153 21.2036282,20.1922821 L17.3275383,18.2307977 Z" id="Path" fill="#97D3E6"/> <path d="M21.2021854,20.1923561 L17.3190729,18.2307977 L17.3190729,13 L16.8289407,13 C14.4816392,20.8036442 10.3625073,25.5728465 7,28.3267906 C7.13903315,29.2873121 7.9531609,29.9993334 8.91276802,30 L15.3792015,30 C16.4506651,30 17.3191461,29.1219169 17.3191461,28.0384416 L17.3191461,21.499963 L19.944514,22.8272721 C20.6370427,23.1777646 21.4790064,22.8939338 21.8255637,22.194356 C21.8255637,22.1936894 21.826223,22.1936894 21.826223,22.1930227 L21.8424118,22.1603585 C22.2044987,21.4417451 21.9213047,20.5623287 21.2112687,20.1968743 C21.2080456,20.1956151 21.2054085,20.1936153 21.2021854,20.1923561 Z" id="Path" fill="#8AC9DE"/> <g transform="translate(9.000000, 23.000000)" fill="#7DBDD1" id="Rectangle"> <rect x="0.0323258427" y="0.0487640449" width="1.38859551" height="6.94337079"/> <rect x="2.80951685" y="0.0487640449" width="1.38859551" height="6.94337079"/> <rect x="5.58670787" y="0.0487640449" width="1.38859551" height="6.94337079"/> </g> </g> </g> </g> </g> </g> </g></svg>