<svg xmlns="http://www.w3.org/2000/svg" xmlns:xlink="http://www.w3.org/1999/xlink" width="34px" height="35px" viewBox="0 0 34 35" version="1.1"> <g id="Page-1" stroke="none" stroke-width="1" fill="none" fill-rule="evenodd"> <g id="Front" transform="translate(-820.000000, -37.000000)" fill-rule="nonzero"> <g id="Section-1" transform="translate(0.000000, -97.000000)"> <g id="Types" transform="translate(732.000000, 130.000000)"> <g id="Group-4" transform="translate(84.000000, 4.000000)"> <g id="Group" transform="translate(4.000000, 0.000000)"> <path d="M15.6129323,21 C15.2451591,21 15,20.7571448 15,20.3928277 L15,16.1428277 C15,14.8070898 16.1032504,13.7142759 17.4515905,13.7142759 C22.5386929,13.2892965 30.3225448,12.6213932 30.8128629,12.5 C31.9161134,12.2571448 32.7741353,11.2249931 32.7741353,10.0714482 L32.7741353,7.64289644 C32.7741353,6.30715858 31.6708849,5.21434467 30.3225448,5.21434467 C29.9547715,5.21434467 29.7096125,4.97148949 29.7096125,4.60717233 C29.7096125,4.24285518 29.9547715,4 30.3225448,4 C32.3451243,4 34,5.63925526 34,7.64289644 L34,10.0714482 C34,11.8321655 32.7742047,13.3500275 31.0580914,13.7143447 C30.5064662,13.8358066 19.6580914,14.7464964 17.5128976,14.9286206 C16.7774205,14.9286206 16.2257953,15.4750619 16.2257953,16.1428964 L16.2257953,20.3928964 C16.2257953,20.7571448 15.9806362,21 15.6129323,21" id="Path" fill="#A3AAAF"/> <path d="M19,20 L11,20 L11.5714563,23 L12.7143042,23 L12.7143042,32.6000272 C12.7143042,33.9200462 13.7428997,35 15,35 C16.2571003,35 17.2856958,33.9199783 17.2856958,32.6000272 L17.2856958,23 L18.4285437,23 L19,20 Z" id="Path" fill="#C17C3E"/> <path d="M1,4.57145631 L1,6.8571521 C1,7.48570226 1.55533194,8 2.23403214,8 L28.7659679,8 C29.4446681,8 30,7.48570226 30,6.8571521 L30,1.1428479 C30,0.514297736 29.4446681,0 28.7659679,0 L2.23410204,0 C1.55533194,0 1,0.514297736 1,1.1428479 L1,3.42854369 L1,4.57145631 Z" id="Path" fill="#ECE8D8"/> <path d="M0.66669184,4 C0.266661632,4 0,4.39997734 0,5 C0,5.60002266 0.266661632,6 0.66669184,6 L2,6 L2,4 L0.66669184,4 Z" id="Path" fill="#A3AAAF"/> <g transform="translate(4.000000, 2.000000)" fill="#C9C3A7" id="Path"> <path d="M0.593732782,4.93770833 C0.472107438,4.93770833 0.289738292,4.87638889 0.22892562,4.81506944 C-0.0142561983,4.56986111 -0.0750688705,4.20201389 0.168112948,3.95680556 L3.20792011,0.278611111 C3.45110193,0.0334027778 3.81590909,-0.0279166667 4.05909091,0.217291667 C4.30227273,0.4625 4.3630854,0.830347222 4.11990358,1.07555556 L1.08009642,4.75381944 C0.958471074,4.87645833 0.776101928,4.93770833 0.593732782,4.93770833"/> <path d="M4.84944904,4.93770833 C4.72782369,4.93770833 4.54545455,4.87638889 4.48464187,4.81506944 C4.24146006,4.56986111 4.18064738,4.20201389 4.4238292,3.95680556 L7.46363636,0.278611111 C7.70681818,0.0334027778 8.07162534,-0.0279166667 8.31480716,0.217291667 C8.55798898,0.4625 8.61880165,0.830347222 8.37561983,1.07555556 L5.33581267,4.75375 C5.21418733,4.87645833 5.03181818,4.93770833 4.84944904,4.93770833"/> <path d="M9.10516529,4.93770833 C8.98353994,4.93770833 8.8011708,4.87638889 8.74035813,4.81506944 C8.49717631,4.56986111 8.43636364,4.20201389 8.67954545,3.95680556 L11.7193526,0.278611111 C11.9625344,0.0334027778 12.3273416,-0.0279166667 12.5705234,0.217291667 C12.8137052,0.4625 12.8745179,0.830347222 12.6313361,1.07555556 L9.59152893,4.75375 C9.46990358,4.87645833 9.28753444,4.93770833 9.10516529,4.93770833"/> <path d="M13.3608815,4.93770833 C13.2392562,4.93770833 13.0568871,4.87638889 12.9960744,4.81506944 C12.7528926,4.56986111 12.6920799,4.20201389 12.9352617,3.95680556 L15.9750689,0.278611111 C16.2182507,0.0334027778 16.5830579,-0.0279166667 16.8262397,0.217291667 C17.0694215,0.4625 17.1302342,0.830347222 16.8870523,1.07555556 L13.8472452,4.75375 C13.7256887,4.87645833 13.5432507,4.93770833 13.3608815,4.93770833"/> <path d="M17.6165978,4.93770833 C17.4949725,4.93770833 17.3126033,4.87638889 17.2517906,4.81506944 C17.0086088,4.56986111 16.9477961,4.20201389 17.190978,3.95680556 L20.2307851,0.278611111 C20.4739669,0.0334027778 20.8387741,-0.0279166667 21.0819559,0.217291667 C21.3251377,0.4625 21.3859504,0.830347222 21.1427686,1.07555556 L18.1029614,4.75375 C17.981405,4.87645833 17.7989669,4.93770833 17.6165978,4.93770833"/> <path d="M21.2643939,4.93770833 C21.1427686,4.93770833 20.9603994,4.87638889 20.8995868,4.81506944 C20.656405,4.56986111 20.5955923,4.20201389 20.8387741,3.95680556 L23.8785813,0.278611111 C24.1217631,0.0334027778 24.4865702,-0.0279166667 24.7297521,0.217291667 C24.9729339,0.4625 25.0337466,0.830347222 24.7905647,1.07555556 L21.7507576,4.75375 C21.6291322,4.87645833 21.4467631,4.93770833 21.2643939,4.93770833"/> </g> <path d="M10.7646498,8 L3,8 L3,12.2777585 C3,13.3166517 3.84118078,14.1111034 4.94118078,14.1111034 C6.04118078,14.1111034 6.88236156,13.3166517 6.88236156,12.2777585 L6.88236156,17.1666551 C6.88236156,18.2055482 7.72354235,19 8.82354235,19 C9.92354235,19 10.7647231,18.2055482 10.7647231,17.1666551 L10.7647231,10.7499827 C10.7647231,11.6055621 11.4764577,12.2777585 12.3823616,12.2777585 C13.2882655,12.2777585 14,11.6055621 14,10.7499827 L14,8 L10.7646498,8 Z" id="Path" fill="#368CD6"/> <g transform="translate(14.000000, 29.000000)" fill="#9E5A23" id="Path"> <path d="M1.47316667,0.0536296296 L0.00188888889,0.0536296296 L0.00188888889,1.36140741 L1.47316667,1.36140741 C1.76744444,1.36140741 1.96361111,1.09985185 1.96361111,0.707481481 C1.96361111,0.315111111 1.76744444,0.0536296296 1.47316667,0.0536296296"/> <path d="M1.96361111,3.32311111 C1.96361111,2.93074074 1.76744444,2.66918519 1.47316667,2.66918519 L0.00188888889,2.66918519 L0.00188888889,3.97696298 L1.47316667,3.97696296 C1.76744444,3.97703704 1.96361111,3.71548148 1.96361111,3.32311111"/> </g> </g> </g> </g> </g> </g> </g></svg>